<?xml version="1.0" encoding="utf-8"?>
<!-- Generator: Adobe Illustrator 20.1.0, SVG Export Plug-In . SVG Version: 6.00 Build 0)  -->
<svg version="1.1" id="Layer_1" xmlns="http://www.w3.org/2000/svg" xmlns:xlink="http://www.w3.org/1999/xlink" x="0px" y="0px"
	 viewBox="0 0 50 50" style="enable-background:new 0 0 50 50;" xml:space="preserve">
<g>
	<path d="M9,38h31c1.1,0,2,0.9,2,2s-0.9,2-2,2H9c-1.1,0-2-0.9-2-2S7.9,38,9,38z"/>
	<path d="M9,28h23c1.1,0,2,0.9,2,2s-0.9,2-2,2H9c-1.1,0-2-0.9-2-2S7.9,28,9,28z"/>
	<path d="M9,8h23c1.1,0,2,0.9,2,2s-0.9,2-2,2H9c-1.1,0-2-0.9-2-2S7.9,8,9,8z"/>
	<path d="M9,18h31c1.1,0,2,0.9,2,2s-0.9,2-2,2H9c-1.1,0-2-0.9-2-2S7.9,18,9,18z"/>
</g>
</svg>
