<?xml version="1.0" encoding="utf-8"?>
<!-- Generator: Adobe Illustrator 20.1.0, SVG Export Plug-In . SVG Version: 6.00 Build 0)  -->
<svg version="1.1" id="Layer_1" xmlns="http://www.w3.org/2000/svg" xmlns:xlink="http://www.w3.org/1999/xlink" x="0px" y="0px"
	 viewBox="0 0 2000 868.8" style="enable-background:new 0 0 2000 868.8;" xml:space="preserve">
<style type="text/css">
	.st0{fill:#F4F5F9;}
</style>
<path class="st0" d="M-36.7-26.9l2.7,495.2c0,76,114,76,114,0v-111c0-52,78.8-52,78.8,0c0,17-0.5,94.8-0.5,110.3
	c-0.2,51.5,4.3,95.9,45.8,137.4c97.2,97.2,262.9,27,262.9-108.7V270.3c0-51,78-51,78,0v357.2c0,55.2,0.2,97.4,45.3,142.4
	C687.4,867.1,853,796.8,853,661.1V369.4c0-75.8,79-58,79-12.1v72.1c0,1.5,0,3,0,4.4v132.3c0,42.4,17.4,80.9,45.3,108.8
	c97.2,97.2,262.7,27.1,262.7-108.8V167.3c0-52,79-52,79,0V609c0,42.2,17.4,80.9,45.2,108.7c97.2,97.2,262.8,27.1,262.8-108.7v-85.7
	c0-52,78-51,78,0v126.9c0,97.9,65.1,166.1,154,166.1c84.8,0,154-69.2,154-153.9v-696L-36.7-26.9z"/>
</svg>
