<?xml version="1.0" encoding="utf-8"?>
<!-- Generator: Adobe Illustrator 20.1.0, SVG Export Plug-In . SVG Version: 6.00 Build 0)  -->
<svg version="1.1" id="Layer_1" xmlns="http://www.w3.org/2000/svg" xmlns:xlink="http://www.w3.org/1999/xlink" x="0px" y="0px"
	 viewBox="0 0 117 124.5" style="enable-background:new 0 0 117 124.5;" xml:space="preserve">
<style type="text/css">
	.st0{fill:url(#SVGID_1_);}
	.st1{fill:none;}
</style>
<linearGradient id="SVGID_1_" gradientUnits="userSpaceOnUse" x1="14.5" y1="231.8891" x2="101.9645" y2="231.8891" gradientTransform="matrix(1 0 0 1 0 -174)">
	<stop  offset="0" style="stop-color:#FF9900"/>
	<stop  offset="1" style="stop-color:#F10091"/>
</linearGradient>
<path class="st0" d="M48.8,22.1c0-5.2,4.2-9.5,9.5-9.5c5.2,0,9.5,4.2,9.5,9.5c0,5.2-4.2,9.5-9.5,9.5C53,31.5,48.8,27.3,48.8,22.1
	L48.8,22.1z M80.1,41.4c0-5.2,4.2-9.5,9.5-9.5c5.2,0,9.5,4.2,9.5,9.5c0,5.2-4.2,9.5-9.5,9.5C84.3,50.9,80.1,46.7,80.1,41.4z
	 M17.5,41.4c0-5.2,4.2-9.5,9.5-9.5c5.2,0,9.5,4.2,9.5,9.5c0,5.2-4.2,9.5-9.5,9.5C21.8,50.9,17.5,46.7,17.5,41.4z M27,53.6
	c7.2,0,12.5,5.5,12.5,13.4v10.3c0,4.2,6.4,4.2,6.4,0v-30c0-11,13.4-16.7,21.3-8.8c2.3,2.3,3.7,5.4,3.7,8.8v43.3c0,4.2,6.4,4.2,6.4,0
	V66.1c0-11,13.4-16.7,21.3-8.8c2.3,2.3,3.7,5.4,3.7,8.8v18.8c0,6.1-9.3,6.1-9.3,0V66.1c0-3.7-6.4-5.1-6.4,1v23.6
	c0,11-13.4,16.7-21.3,8.8c-3.6-3.6-3.7-7.1-3.7-11.5V47.3c0-4.2-6.4-4.2-6.4,0v30c0,11-13.4,16.7-21.3,8.8
	c-3.4-3.4-3.7-6.9-3.7-11.1c0-1.2,0-7.6,0-8.9c0-4.2-6.4-4.2-6.4,0v32.2c0,6.1-9.3,6.1-9.3,0V66.1C14.5,59.2,20.1,53.6,27,53.6z"/>
<rect x="126.2" y="30" class="st1" width="309.5" height="94.5"/>
</svg>
