<?xml version="1.0" encoding="utf-8"?>
<!-- Generator: Adobe Illustrator 20.1.0, SVG Export Plug-In . SVG Version: 6.00 Build 0)  -->
<svg version="1.1" id="Layer_1" xmlns="http://www.w3.org/2000/svg" xmlns:xlink="http://www.w3.org/1999/xlink" x="0px" y="0px"
	 viewBox="0 0 386.4 124.5" style="enable-background:new 0 0 386.4 124.5;" xml:space="preserve">
<style type="text/css">
	.st0{fill:url(#SVGID_1_);}
	.st1{fill:none;}
	.st2{enable-background:new    ;}
</style>
<linearGradient id="SVGID_1_" gradientUnits="userSpaceOnUse" x1="14.5" y1="68.1109" x2="101.9645" y2="68.1109" gradientTransform="matrix(1 0 0 -1 0 126)">
	<stop  offset="0" style="stop-color:#FF9900"/>
	<stop  offset="1" style="stop-color:#F10091"/>
</linearGradient>
<path class="st0" d="M48.8,22.1c0-5.2,4.2-9.5,9.5-9.5c5.2,0,9.5,4.2,9.5,9.5c0,5.2-4.2,9.5-9.5,9.5C53,31.5,48.8,27.3,48.8,22.1
	L48.8,22.1z M80.1,41.4c0-5.2,4.2-9.5,9.5-9.5c5.2,0,9.5,4.2,9.5,9.5c0,5.2-4.2,9.5-9.5,9.5C84.3,50.9,80.1,46.7,80.1,41.4z
	 M17.5,41.4c0-5.2,4.2-9.5,9.5-9.5c5.2,0,9.5,4.2,9.5,9.5c0,5.2-4.2,9.5-9.5,9.5C21.8,50.9,17.5,46.7,17.5,41.4z M27,53.6
	c7.2,0,12.5,5.5,12.5,13.4v10.3c0,4.2,6.4,4.2,6.4,0v-30c0-11,13.4-16.7,21.3-8.8c2.3,2.3,3.7,5.4,3.7,8.8v43.3c0,4.2,6.4,4.2,6.4,0
	V66.1c0-11,13.4-16.7,21.3-8.8c2.3,2.3,3.7,5.4,3.7,8.8v18.8c0,6.1-9.3,6.1-9.3,0V66.1c0-3.7-6.4-5.1-6.4,1v23.6
	c0,11-13.4,16.7-21.3,8.8c-3.6-3.6-3.7-7.1-3.7-11.5V47.3c0-4.2-6.4-4.2-6.4,0v30c0,11-13.4,16.7-21.3,8.8
	c-3.4-3.4-3.7-6.9-3.7-11.1c0-1.2,0-7.6,0-8.9c0-4.2-6.4-4.2-6.4,0v32.2c0,6.1-9.3,6.1-9.3,0V66.1C14.5,59.2,20.1,53.6,27,53.6z"/>
<rect x="126.2" y="30" class="st1" width="309.5" height="94.5"/>
<g class="st2">
	<path d="M159.2,47.3c2.4,1.5,4.2,3.7,5.5,6.5c1.3,2.8,2,6,2,9.7c0,3.6-0.7,6.8-2,9.6c-1.3,2.7-3.2,4.8-5.5,6.3
		c-2.4,1.5-5.1,2.2-8.1,2.2c-2.5,0-4.7-0.5-6.7-1.6c-2-1.1-3.5-2.5-4.5-4.4v14.7c0,1.2-0.4,2.2-1.2,3c-0.8,0.7-1.9,1.1-3.2,1.1
		c-1.3,0-2.4-0.4-3.3-1.2c-0.8-0.8-1.3-1.8-1.3-3V49.4c0-1.3,0.4-2.3,1.2-3.1c0.8-0.8,1.9-1.2,3.2-1.2c1.3,0,2.4,0.4,3.2,1.2
		c0.8,0.8,1.2,1.8,1.2,3.1v1.8c1.1-2,2.6-3.5,4.6-4.6c2-1.1,4.3-1.6,6.8-1.6C154.2,45,156.9,45.8,159.2,47.3z M155.4,71.8
		c1.6-1.9,2.4-4.7,2.4-8.2c0-3.6-0.8-6.5-2.4-8.5c-1.6-2-3.8-3-6.6-3c-2.9,0-5.1,1-6.7,3c-1.6,2-2.3,4.8-2.3,8.4
		c0,3.6,0.8,6.4,2.3,8.4c1.6,2,3.8,3,6.7,3C151.6,74.7,153.8,73.7,155.4,71.8z"/>
	<path d="M209,72.4c0.5,0.6,0.8,1.5,0.8,2.5c0,1.5-0.9,2.7-2.7,3.7c-1.6,0.9-3.5,1.6-5.5,2.2c-2.1,0.6-4,0.8-5.9,0.8
		c-5.7,0-10.2-1.6-13.5-4.9c-3.3-3.3-5-7.7-5-13.4c0-3.6,0.7-6.8,2.2-9.6c1.4-2.8,3.5-4.9,6.1-6.5c2.6-1.5,5.6-2.3,8.9-2.3
		c3.2,0,5.9,0.7,8.3,2.1c2.4,1.4,4.2,3.4,5.5,5.9c1.3,2.5,1.9,5.5,1.9,9c0,2.1-0.9,3.1-2.7,3.1h-21.2c0.3,3.3,1.2,5.7,2.8,7.3
		c1.6,1.6,3.9,2.3,6.9,2.3c1.5,0,2.9-0.2,4.1-0.6c1.2-0.4,2.5-0.9,4-1.6c1.4-0.8,2.5-1.2,3.2-1.2C207.8,71.5,208.5,71.8,209,72.4z
		 M188.7,53.7c-1.5,1.5-2.3,3.7-2.6,6.6h16.3c-0.1-2.9-0.8-5.1-2.2-6.7c-1.3-1.5-3.2-2.3-5.6-2.3C192.1,51.4,190.1,52.1,188.7,53.7z
		"/>
	<path d="M228.9,79.5c-2.7-1.5-4.8-3.6-6.3-6.4c-1.5-2.8-2.2-6-2.2-9.7c0-3.7,0.7-6.9,2.2-9.7c1.5-2.8,3.6-4.9,6.3-6.4
		c2.7-1.5,5.9-2.2,9.5-2.2c3.6,0,6.8,0.7,9.5,2.2c2.7,1.5,4.8,3.6,6.3,6.4c1.5,2.8,2.2,6,2.2,9.7c0,3.7-0.7,6.9-2.2,9.7
		c-1.5,2.8-3.6,4.9-6.3,6.4c-2.7,1.5-5.9,2.2-9.5,2.2C234.8,81.7,231.6,80.9,228.9,79.5z M245,71.8c1.5-1.9,2.3-4.8,2.3-8.5
		c0-3.7-0.8-6.5-2.3-8.5c-1.5-1.9-3.7-2.9-6.6-2.9c-2.9,0-5.1,1-6.7,2.9c-1.6,1.9-2.3,4.8-2.3,8.5c0,3.7,0.8,6.6,2.3,8.5
		c1.5,1.9,3.7,2.9,6.6,2.9C241.3,74.7,243.5,73.7,245,71.8z"/>
	<path d="M297,47.3c2.4,1.5,4.2,3.7,5.5,6.5c1.3,2.8,2,6,2,9.7c0,3.6-0.7,6.8-2,9.6c-1.3,2.7-3.2,4.8-5.5,6.3
		c-2.4,1.5-5.1,2.2-8.1,2.2c-2.5,0-4.7-0.5-6.7-1.6c-2-1.1-3.5-2.5-4.5-4.4v14.7c0,1.2-0.4,2.2-1.2,3c-0.8,0.7-1.9,1.1-3.2,1.1
		c-1.3,0-2.4-0.4-3.3-1.2c-0.8-0.8-1.3-1.8-1.3-3V49.4c0-1.3,0.4-2.3,1.2-3.1c0.8-0.8,1.9-1.2,3.2-1.2c1.3,0,2.4,0.4,3.2,1.2
		c0.8,0.8,1.2,1.8,1.2,3.1v1.8c1.1-2,2.6-3.5,4.6-4.6s4.3-1.6,6.8-1.6C292,45,294.7,45.8,297,47.3z M293.2,71.8
		c1.6-1.9,2.4-4.7,2.4-8.2c0-3.6-0.8-6.5-2.4-8.5c-1.6-2-3.8-3-6.6-3c-2.9,0-5.1,1-6.7,3c-1.6,2-2.3,4.8-2.3,8.4
		c0,3.6,0.8,6.4,2.3,8.4c1.6,2,3.8,3,6.7,3C289.4,74.7,291.6,73.7,293.2,71.8z"/>
	<path d="M318.2,80.4c-0.8-0.7-1.3-1.8-1.3-3.2v-43c0-1.4,0.4-2.4,1.3-3.2s1.9-1.1,3.2-1.1s2.4,0.4,3.2,1.1c0.9,0.7,1.3,1.8,1.3,3.2
		v43c0,1.4-0.4,2.5-1.3,3.2c-0.9,0.7-1.9,1.1-3.2,1.1S319.1,81.2,318.2,80.4z"/>
	<path d="M370.1,72.4c0.5,0.6,0.8,1.5,0.8,2.5c0,1.5-0.9,2.7-2.7,3.7c-1.6,0.9-3.5,1.6-5.5,2.2c-2.1,0.6-4,0.8-5.9,0.8
		c-5.7,0-10.2-1.6-13.5-4.9c-3.3-3.3-5-7.7-5-13.4c0-3.6,0.7-6.8,2.2-9.6c1.4-2.8,3.5-4.9,6.1-6.5s5.6-2.3,8.9-2.3
		c3.2,0,5.9,0.7,8.3,2.1c2.4,1.4,4.2,3.4,5.5,5.9c1.3,2.5,1.9,5.5,1.9,9c0,2.1-0.9,3.1-2.7,3.1h-21.2c0.3,3.3,1.2,5.7,2.8,7.3
		c1.6,1.6,3.9,2.3,6.9,2.3c1.5,0,2.9-0.2,4.1-0.6c1.2-0.4,2.5-0.9,4-1.6c1.4-0.8,2.5-1.2,3.2-1.2C368.9,71.5,369.5,71.8,370.1,72.4z
		 M349.7,53.7c-1.5,1.5-2.3,3.7-2.6,6.6h16.3c-0.1-2.9-0.8-5.1-2.2-6.7c-1.3-1.5-3.2-2.3-5.6-2.3C353.2,51.4,351.2,52.1,349.7,53.7z
		"/>
</g>
</svg>
