<?xml version="1.0" encoding="utf-8"?>
<!-- Generator: Adobe Illustrator 20.1.0, SVG Export Plug-In . SVG Version: 6.00 Build 0)  -->
<svg version="1.1" id="Layer_1" xmlns="http://www.w3.org/2000/svg" xmlns:xlink="http://www.w3.org/1999/xlink" x="0px" y="0px"
	 viewBox="0 0 50 50" style="enable-background:new 0 0 50 50;" xml:space="preserve">
<style type="text/css">
	.st0{fill:url(#SVGID_1_);}
</style>
<g>
	<linearGradient id="SVGID_1_" gradientUnits="userSpaceOnUse" x1="5.7423" y1="23.8869" x2="44.2577" y2="23.8869">
		<stop  offset="0" style="stop-color:#FE8100"/>
		<stop  offset="1" style="stop-color:#EF006F"/>
	</linearGradient>
	<path class="st0" d="M20.4,25.5c1.4,1.5,2.1,3.3,2.1,5.5c0,2.4-0.8,4.4-2.3,6.1c-1.5,1.6-3.5,2.4-5.7,2.4c-2.6,0-4.7-0.9-6.3-2.8
		c-1.6-1.9-2.4-4.6-2.4-8.3c0-7.1,2.5-13.3,7.5-18.7c0.9-1,2-1.5,3.2-1.5c1.1,0,2,0.4,2.9,1.2c0.9,0.8,1.3,1.7,1.3,2.8
		c0,0.9-0.4,1.8-1.1,2.6C17.2,17.2,15.7,20,15,23C17.2,23.2,19,24.1,20.4,25.5z M42.2,25.5c1.4,1.5,2.1,3.3,2.1,5.5
		c0,2.4-0.8,4.4-2.3,6.1c-1.5,1.6-3.5,2.4-5.7,2.4c-2.6,0-4.7-0.9-6.3-2.8c-1.6-1.9-2.4-4.6-2.4-8.3c0-7.1,2.5-13.3,7.5-18.7
		c0.9-1,2-1.5,3.2-1.5c1.1,0,2,0.4,2.9,1.2c0.9,0.8,1.3,1.7,1.3,2.8c0,0.9-0.4,1.8-1.1,2.6c-2.3,2.4-3.7,5.1-4.4,8.2
		C39,23.2,40.8,24.1,42.2,25.5z"/>
</g>
</svg>
